<svg width="16" height="16" viewBox="0 0 16 16" fill="none" xmlns="http://www.w3.org/2000/svg">
    <g id="Icon/Filled/Check">
        <path id="Union" fill-rule="evenodd" clip-rule="evenodd"
            d="M8.00004 14.6673C11.6819 14.6673 14.6667 11.6826 14.6667 8.00065C14.6667 4.31875 11.6819 1.33398 8.00004 1.33398C4.31814 1.33398 1.33337 4.31875 1.33337 8.00065C1.33337 11.6826 4.31814 14.6673 8.00004 14.6673ZM11.197 6.53098C11.4899 6.23809 11.4899 5.76321 11.197 5.47032C10.9041 5.17743 10.4293 5.17743 10.1364 5.47032L7.33337 8.27332L6.53037 7.47032C6.23748 7.17743 5.7626 7.17743 5.46971 7.47032C5.17682 7.76321 5.17682 8.23809 5.46971 8.53098L6.80304 9.86431C7.09594 10.1572 7.57081 10.1572 7.8637 9.86431L11.197 6.53098Z"
            fill="#3FBD97" />
    </g>
</svg>