<svg width="40" height="40" viewBox="0 0 40 40" fill="none" xmlns="http://www.w3.org/2000/svg">
<circle cx="20" cy="20" r="20" fill="#8A3AC8" fill-opacity="0.1"/>
<path opacity="0.4" d="M29.0899 29.5C29.0899 29.78 28.8699 30 28.5899 30H11.4099C11.1299 30 10.9099 29.78 10.9099 29.5C10.9099 25.36 14.9899 22 19.9999 22C21.0299 22 22.0299 22.14 22.9499 22.41C22.3599 23.11 21.9999 24.02 21.9999 25C21.9999 25.75 22.2099 26.46 22.5799 27.06C22.7799 27.4 23.0399 27.71 23.3399 27.97C24.0399 28.61 24.9699 29 25.9999 29C27.1199 29 28.1299 28.54 28.8499 27.8C29.0099 28.34 29.0899 28.91 29.0899 29.5Z" fill="#8A3AC8"/>
<path d="M28.97 22.33C28.25 21.51 27.18 21 26 21C24.88 21 23.86 21.46 23.13 22.21C22.43 22.93 22 23.92 22 25C22 25.75 22.21 26.46 22.58 27.06C22.78 27.4 23.04 27.71 23.34 27.97C24.04 28.61 24.97 29 26 29C27.46 29 28.73 28.22 29.42 27.06C29.63 26.72 29.79 26.33 29.88 25.93C29.96 25.63 30 25.32 30 25C30 23.98 29.61 23.04 28.97 22.33ZM27.5 25.73H26.75V26.51C26.75 26.92 26.41 27.26 26 27.26C25.59 27.26 25.25 26.92 25.25 26.51V25.73H24.5C24.09 25.73 23.75 25.39 23.75 24.98C23.75 24.57 24.09 24.23 24.5 24.23H25.25V23.52C25.25 23.11 25.59 22.77 26 22.77C26.41 22.77 26.75 23.11 26.75 23.52V24.23H27.5C27.91 24.23 28.25 24.57 28.25 24.98C28.25 25.39 27.91 25.73 27.5 25.73Z" fill="#8A3AC8"/>
<path d="M20 20C22.7614 20 25 17.7614 25 15C25 12.2386 22.7614 10 20 10C17.2386 10 15 12.2386 15 15C15 17.7614 17.2386 20 20 20Z" fill="#8A3AC8"/>
</svg>
