<svg width="64" height="64" viewBox="0 0 64 64" fill="none" xmlns="http://www.w3.org/2000/svg">
    <rect width="64" height="64" rx="32" fill="#E9EBFA" />
    <path opacity="0.4" d="M45.2834 28.667V42.0003C45.2834 47.0003 43.6167 48.667 38.6167 48.667H25.2834C20.2834 48.667 18.6167 47.0003 18.6167 42.0003V28.667H45.2834Z" fill="#6A45BE" />
    <path d="M47.8334 23.6663V25.333C47.8334 27.1663 46.9501 28.6663 44.5001 28.6663H19.5001C16.9501 28.6663 16.1667 27.1663 16.1667 25.333V23.6663C16.1667 21.833 16.9501 20.333 19.5001 20.333H44.5001C46.9501 20.333 47.8334 21.833 47.8334 23.6663Z"
        fill="#6A45BE" />
    <path opacity="0.4" d="M31.4 20.3337H22.2C21.6333 19.7171 21.65 18.7671 22.25 18.1671L24.6166 15.8004C25.2333 15.1837 26.25 15.1837 26.8666 15.8004L31.4 20.3337Z" fill="#6A45BE" />
    <path opacity="0.4" d="M41.7833 20.3337H32.5833L37.1166 15.8004C37.7333 15.1837 38.7499 15.1837 39.3666 15.8004L41.7333 18.1671C42.3333 18.7671 42.3499 19.7171 41.7833 20.3337Z" fill="#6A45BE" />
    <path opacity="0.6" d="M26.8999 28.667V37.2337C26.8999 38.567 28.3666 39.3503 29.4832 38.6337L31.0499 37.6003C31.6166 37.2337 32.3332 37.2337 32.8832 37.6003L34.3666 38.6003C35.4666 39.3337 36.9499 38.5503 36.9499 37.217V28.667H26.8999Z"
        fill="#6A45BE" />
</svg>