<svg width="40" height="40" viewBox="0 0 40 40" fill="none" xmlns="http://www.w3.org/2000/svg">
    <circle cx="20" cy="20" r="20" fill="#3FBD97" fill-opacity="0.1" />
    <path
        d="M18.1392 18.2106C16.4768 21.2008 21.1197 23.4249 18.5 24.5451C15.8806 25.6656 14.6202 23.1838 13.3047 20.0211C11.9885 16.8583 13.0456 13.3858 15.6653 12.2661C18.2847 11.1452 20.3382 14.2521 18.1392 18.2106ZM16.9827 10.0404C16.9883 9.16669 17.573 8.74406 18.29 8.75006C19.0066 8.75531 19.5848 9.18581 19.5785 10.0596C19.5698 11.3098 18.9845 11.9199 18.2678 11.9151C17.5512 11.9102 16.9733 11.2911 16.9827 10.0404ZM14.801 10.4649C14.7095 9.84281 15.0781 9.47756 15.5885 9.40069C16.0981 9.32306 16.5563 9.56419 16.6475 10.1859C16.778 11.0754 16.4292 11.5749 15.9192 11.6518C15.4092 11.7283 14.9315 11.3541 14.801 10.4649ZM13.1971 11.5438C13.0497 11.0136 13.3313 10.6539 13.7671 10.5302C14.2028 10.4064 14.627 10.5647 14.7743 11.0957C14.9847 11.8543 14.735 12.3276 14.2992 12.4513C13.8635 12.5751 13.4071 12.3024 13.1971 11.5438ZM12.3308 13.0401C12.1632 12.6489 12.3413 12.3437 12.6623 12.2023C12.9833 12.0609 13.3253 12.1371 13.4933 12.5282C13.7326 13.0877 13.5912 13.4766 13.2702 13.6187C12.9496 13.7601 12.5716 13.5996 12.3308 13.0401ZM11.8013 14.3409C11.6675 14.0282 11.8092 13.7844 12.0665 13.6716C12.323 13.5579 12.596 13.6187 12.7306 13.9314C12.9222 14.3781 12.8086 14.6893 12.5517 14.8029C12.2956 14.9158 11.9933 14.7876 11.8013 14.3409ZM21.218 24.5574C22.3085 27.8072 17.3405 29.1264 19.7112 30.7164C22.0831 32.3068 23.7721 30.1033 25.6403 27.2402C27.5082 24.3771 27.1013 20.7669 24.7291 19.1762C22.358 17.5862 19.775 20.2569 21.218 24.5574ZM23.8385 16.7439C23.9915 15.8841 23.4938 15.3594 22.7881 15.2304C22.0823 15.1014 21.4358 15.4172 21.2832 16.2771C21.0646 17.5078 21.5292 18.2166 22.235 18.3456C22.9407 18.4749 23.6202 17.9747 23.8385 16.7439ZM25.9058 17.5682C26.1087 16.9742 25.8128 16.5456 25.3253 16.3749C24.8382 16.2036 24.3447 16.3551 24.1418 16.9494C23.852 17.7984 24.104 18.3549 24.5911 18.5256C25.0782 18.6962 25.6163 18.4176 25.9058 17.5682ZM27.287 18.9283C27.5277 18.4341 27.3162 18.0283 26.9112 17.8254C26.5055 17.6226 26.0596 17.6987 25.8185 18.1929C25.4738 18.8998 25.6332 19.4109 26.0386 19.6146C26.4436 19.8174 26.942 19.6348 27.287 18.9283ZM27.8656 20.5607C28.1018 20.2078 27.9822 19.8737 27.692 19.6753C27.4025 19.4762 27.0526 19.4871 26.8163 19.8399C26.4792 20.3447 26.5478 20.7542 26.8381 20.9533C27.1272 21.1524 27.5281 21.0654 27.8656 20.5607ZM28.1498 21.9377C28.3385 21.6557 28.2425 21.3891 28.0111 21.2301C27.7793 21.0711 27.5007 21.0801 27.3113 21.3621C27.0417 21.7656 27.0976 22.0918 27.3286 22.2516C27.5596 22.4106 27.8802 22.3408 28.1498 21.9377Z"
        fill="#3FBD97" />
</svg>