<svg width="36" height="36" viewBox="0 0 36 36" fill="none" xmlns="http://www.w3.org/2000/svg">
    <rect width="36" height="36" rx="18" fill="#3FBD97" />
    <path opacity="0.4" d="M16.3251 22.9837C20.0024 22.9837 22.9834 20.0026 22.9834 16.3253C22.9834 12.648 20.0024 9.66699 16.3251 9.66699C12.6478 9.66699 9.66675 12.648 9.66675 16.3253C9.66675 20.0026 12.6478 22.9837 16.3251 22.9837Z" fill="white" />
    <path d="M26.3084 21.3251C26.3084 24.0751 24.0751 26.3084 21.3251 26.3084C19.6251 26.3084 18.1334 25.4584 17.2334 24.1667C20.8667 23.7584 23.7584 20.8667 24.1667 17.2334C25.4584 18.1334 26.3084 19.6251 26.3084 21.3251Z" fill="white" />
    <path
        d="M17.5417 16.0918L15.5417 15.3918C15.3417 15.3251 15.3001 15.3085 15.3001 15.0168C15.3001 14.8001 15.4501 14.6251 15.6417 14.6251H16.8917C17.1584 14.6251 17.3751 14.8668 17.3751 15.1668C17.3751 15.5085 17.6584 15.7918 18.0001 15.7918C18.3417 15.7918 18.6251 15.5085 18.6251 15.1668C18.6251 14.2085 17.8834 13.4251 16.9584 13.3835V13.3418C16.9584 13.0001 16.6751 12.7168 16.3334 12.7168C15.9917 12.7168 15.7084 12.9918 15.7084 13.3418V13.3835H15.6334C14.7584 13.3835 14.0417 14.1168 14.0417 15.0251C14.0417 15.8168 14.3917 16.3251 15.1167 16.5751L17.1251 17.2751C17.3251 17.3418 17.3667 17.3585 17.3667 17.6501C17.3667 17.8668 17.2167 18.0418 17.0251 18.0418H15.7751C15.5084 18.0418 15.2917 17.8001 15.2917 17.5001C15.2917 17.1585 15.0084 16.8751 14.6667 16.8751C14.3251 16.8751 14.0417 17.1585 14.0417 17.5001C14.0417 18.4585 14.7834 19.2418 15.7084 19.2835V19.3335C15.7084 19.6751 15.9917 19.9585 16.3334 19.9585C16.6751 19.9585 16.9584 19.6751 16.9584 19.3335V19.2918H17.0334C17.9084 19.2918 18.6251 18.5585 18.6251 17.6501C18.6251 16.8585 18.2667 16.3501 17.5417 16.0918Z"
        fill="white" />
</svg>