<svg width="40" height="40" viewBox="0 0 40 40" fill="none" xmlns="http://www.w3.org/2000/svg">
    <path opacity="0.4"
        d="M30 15.81V21.9L28.37 20.5C27.59 19.83 26.33 19.83 25.55 20.5L21.39 24.07C20.61 24.74 19.35 24.74 18.57 24.07L18.23 23.79C17.52 23.17 16.39 23.11 15.59 23.65L10.67 26.95L10.56 27.03C10.19 26.23 10 25.28 10 24.19V15.81C10 12.17 12.17 10 15.81 10H24.19C27.83 10 30 12.17 30 15.81Z"
        fill="#0B3C49" />
    <path d="M17.0001 18.3791C18.3146 18.3791 19.3801 17.3136 19.3801 15.9991C19.3801 14.6847 18.3146 13.6191 17.0001 13.6191C15.6857 13.6191 14.6201 14.6847 14.6201 15.9991C14.6201 17.3136 15.6857 18.3791 17.0001 18.3791Z" fill="#0B3C49" />
    <path
        d="M30.0001 21.9005V24.1905C30.0001 27.8305 27.8301 30.0005 24.1901 30.0005H15.8101C13.2601 30.0005 11.4201 28.9305 10.5601 27.0305L10.6701 26.9505L15.5901 23.6505C16.3901 23.1105 17.5201 23.1705 18.2301 23.7905L18.5701 24.0705C19.3501 24.7405 20.6101 24.7405 21.3901 24.0705L25.5501 20.5005C26.3301 19.8305 27.5901 19.8305 28.3701 20.5005L30.0001 21.9005Z"
        fill="#0B3C49" />
    <rect x="0.5" y="0.5" width="39" height="39" rx="19.5" stroke="#DCE5EC" />
</svg>