<svg width="25" height="24" viewBox="0 0 25 24" fill="none" xmlns="http://www.w3.org/2000/svg">
    <g id="vuesax/bulk/crown">
        <g id="crown">
            <path id="Vector" opacity="0.4"
                d="M16.9367 18.98H7.39674C6.97674 18.98 6.59674 18.71 6.45674 18.32L2.29674 6.67004C1.96674 5.74004 3.02674 4.95004 3.81674 5.52004L7.81674 8.38004C8.34674 8.76004 9.10674 8.53004 9.33674 7.92004L11.2267 2.88004C11.5467 2.01004 12.7767 2.01004 13.0967 2.88004L14.9867 7.92004C15.2167 8.54004 15.9667 8.76004 16.5067 8.38004L20.5067 5.52004C21.3067 4.95004 22.3567 5.75004 22.0267 6.67004L17.8667 18.32C17.7367 18.71 17.3567 18.98 16.9367 18.98Z"
                fill="#A7AFBD" />
            <path id="Vector_2" d="M17.1667 22H7.16675C6.75675 22 6.41675 21.66 6.41675 21.25C6.41675 20.84 6.75675 20.5 7.16675 20.5H17.1667C17.5767 20.5 17.9167 20.84 17.9167 21.25C17.9167 21.66 17.5767 22 17.1667 22Z" fill="#A7AFBD" />
            <path id="Vector_3" d="M14.6667 14.75H9.66675C9.25675 14.75 8.91675 14.41 8.91675 14C8.91675 13.59 9.25675 13.25 9.66675 13.25H14.6667C15.0767 13.25 15.4167 13.59 15.4167 14C15.4167 14.41 15.0767 14.75 14.6667 14.75Z" fill="#A7AFBD" />
        </g>
    </g>
</svg>