<svg width="40" height="41" viewBox="0 0 40 41" fill="none" xmlns="http://www.w3.org/2000/svg">
    <circle cx="20" cy="20.5" r="20" fill="#FFA51E" fill-opacity="0.1" />
    <path d="M13.1499 31C12.7399 31 12.3999 30.66 12.3999 30.25V11.75C12.3999 11.34 12.7399 11 13.1499 11C13.5599 11 13.8999 11.34 13.8999 11.75V30.25C13.8999 30.66 13.5599 31 13.1499 31Z" fill="#FFA51E" />
    <path opacity="0.4"
        d="M26.02 21.3299L24.8 20.1099C24.51 19.8599 24.34 19.4899 24.33 19.0799C24.31 18.6299 24.49 18.1799 24.82 17.8499L26.02 16.6499C27.06 15.6099 27.45 14.6099 27.12 13.8199C26.8 13.0399 25.81 12.6099 24.35 12.6099H13.15C12.94 12.6199 12.77 12.7899 12.77 12.9999V24.9999C12.77 25.2099 12.94 25.3799 13.15 25.3799H24.35C25.79 25.3799 26.76 24.9399 27.09 24.1499C27.42 23.3499 27.04 22.3599 26.02 21.3299Z"
        fill="#FFA51E" />
</svg>