<svg width="24" height="25" viewBox="0 0 24 25" fill="none" xmlns="http://www.w3.org/2000/svg">
    <g id="mdi:footprints">
        <path id="Vector"
            d="M10.74 12.22C11.21 13.45 11.16 14.73 9.74998 15.24C6.84998 16.31 6.19998 13.5 6.15998 13.36L10.74 12.22ZM5.70998 11.41L10.03 10.34C9.83998 9.29004 10.13 8.24004 10.13 7.00004C10.13 5.32004 8.79998 2.03004 6.67998 2.56004C4.25998 3.16004 3.90998 5.85004 3.99998 7.15004C4.11998 8.45004 5.63998 11.23 5.70998 11.41ZM17.85 20.35C17.82 20.5 17.16 23.3 14.26 22.24C12.86 21.72 12.8 20.44 13.27 19.21L17.85 20.35ZM20 14.15C20.1 12.85 19.76 10.15 17.33 9.55004C15.22 9.00004 13.89 12.31 13.89 14C13.89 15.23 14.17 16.28 14 17.33L18.3 18.4C18.38 18.22 19.89 15.44 20 14.15Z"
            fill="#3A3E45" />
    </g>
</svg>