<svg width="40" height="40" viewBox="0 0 40 40" fill="none" xmlns="http://www.w3.org/2000/svg">
<circle cx="20" cy="20" r="20" fill="#FB8A2E" fill-opacity="0.1"/>
<path opacity="0.4" d="M25 26.4302H21L16.55 29.3902C15.89 29.8302 15 29.3602 15 28.5602V26.4302C12 26.4302 10 24.4302 10 21.4302V15.4302C10 12.4302 12 10.4302 15 10.4302H25C28 10.4302 30 12.4302 30 15.4302V21.4302C30 24.4302 28 26.4302 25 26.4302Z" fill="#FB8A2E"/>
<path d="M20.0001 20.1099C19.5901 20.1099 19.2501 19.7699 19.2501 19.3599V19.1499C19.2501 17.9899 20.1 17.4199 20.42 17.1999C20.79 16.9499 20.91 16.7799 20.91 16.5199C20.91 16.0199 20.5001 15.6099 20.0001 15.6099C19.5001 15.6099 19.0901 16.0199 19.0901 16.5199C19.0901 16.9299 18.7501 17.2699 18.3401 17.2699C17.9301 17.2699 17.5901 16.9299 17.5901 16.5199C17.5901 15.1899 18.6701 14.1099 20.0001 14.1099C21.3301 14.1099 22.41 15.1899 22.41 16.5199C22.41 17.6599 21.5701 18.2299 21.2601 18.4399C20.8701 18.6999 20.7501 18.8699 20.7501 19.1499V19.3599C20.7501 19.7799 20.4101 20.1099 20.0001 20.1099Z" fill="#FB8A2E"/>
<path d="M20 22.6001C19.58 22.6001 19.25 22.2601 19.25 21.8501C19.25 21.4401 19.59 21.1001 20 21.1001C20.41 21.1001 20.75 21.4401 20.75 21.8501C20.75 22.2601 20.42 22.6001 20 22.6001Z" fill="#FB8A2E"/>
</svg>
