<svg width="25" height="24" viewBox="0 0 25 24" fill="none" xmlns="http://www.w3.org/2000/svg">
    <g id="vuesax/bulk/note">
        <g id="note">
            <path id="Vector" opacity="0.4"
                d="M20.3333 8.25V18C20.3333 21 18.5433 22 16.3333 22H8.33325C6.12325 22 4.33325 21 4.33325 18V8.25C4.33325 5 6.12325 4.25 8.33325 4.25C8.33325 4.87 8.58323 5.43 8.99323 5.84C9.40322 6.25 9.96325 6.5 10.5833 6.5H14.0833C15.3233 6.5 16.3333 5.49 16.3333 4.25C18.5433 4.25 20.3333 5 20.3333 8.25Z"
                fill="#A7AFBD" />
            <path id="Vector_2"
                d="M16.3333 4.25C16.3333 5.49 15.3233 6.5 14.0833 6.5H10.5833C9.96325 6.5 9.40323 6.25 8.99323 5.84C8.58323 5.43 8.33325 4.87 8.33325 4.25C8.33325 3.01 9.34325 2 10.5833 2H14.0833C14.7033 2 15.2633 2.25 15.6733 2.66C16.0833 3.07 16.3333 3.63 16.3333 4.25Z"
                fill="#A7AFBD" />
            <g id="Group">
                <path id="Vector_3" d="M12.3333 13.75H8.33325C7.92325 13.75 7.58325 13.41 7.58325 13C7.58325 12.59 7.92325 12.25 8.33325 12.25H12.3333C12.7433 12.25 13.0833 12.59 13.0833 13C13.0833 13.41 12.7433 13.75 12.3333 13.75Z" fill="#A7AFBD" />
            </g>
            <g id="Group_2">
                <path id="Vector_4" d="M16.3333 17.75H8.33325C7.92325 17.75 7.58325 17.41 7.58325 17C7.58325 16.59 7.92325 16.25 8.33325 16.25H16.3333C16.7433 16.25 17.0833 16.59 17.0833 17C17.0833 17.41 16.7433 17.75 16.3333 17.75Z" fill="#A7AFBD" />
            </g>
        </g>
    </g>
</svg>