<svg width="380" height="4" viewBox="0 0 380 4" fill="none" xmlns="http://www.w3.org/2000/svg">
    <rect width="380" height="4" rx="2" fill="#DCE5EC" />
    <path
        d="M0 2C0 -1.31371 2.68629 -4 6 -4H210C213.314 -4 216 -1.31371 216 2C216 2.53043 215.789 3.03914 215.414 3.41421C215.039 3.78929 214.53 4 214 4H2H0H2C1.46957 4 0.960859 3.78929 0.585786 3.41421C0.210714 3.03914 -2.3186e-08 2.53043 0 2L0 2ZM216 4H0H216ZM0 4V0V4ZM216 0V4V0Z"
        fill="#0B3C49" mask="url(#path-2-inside-1_53_2204)" />
</svg>