<svg width="40" height="40" viewBox="0 0 40 40" fill="none" xmlns="http://www.w3.org/2000/svg">
    <rect width="40" height="40" rx="20" fill="#0B3C49" />
    <path opacity="0.4" d="M25 26.4297H21L16.55 29.3897C15.89 29.8297 15 29.3597 15 28.5597V26.4297C12 26.4297 10 24.4297 10 21.4297V15.4297C10 12.4297 12 10.4297 15 10.4297H25C28 10.4297 30 12.4297 30 15.4297V21.4297C30 24.4297 28 26.4297 25 26.4297Z"
        fill="white" />
    <path
        d="M20.0001 20.1104C19.5901 20.1104 19.2501 19.7704 19.2501 19.3604V19.1504C19.2501 17.9904 20.1 17.4204 20.42 17.2004C20.79 16.9504 20.91 16.7804 20.91 16.5204C20.91 16.0204 20.5001 15.6104 20.0001 15.6104C19.5001 15.6104 19.0901 16.0204 19.0901 16.5204C19.0901 16.9304 18.7501 17.2704 18.3401 17.2704C17.9301 17.2704 17.5901 16.9304 17.5901 16.5204C17.5901 15.1904 18.6701 14.1104 20.0001 14.1104C21.3301 14.1104 22.41 15.1904 22.41 16.5204C22.41 17.6604 21.5701 18.2304 21.2601 18.4404C20.8701 18.7004 20.7501 18.8704 20.7501 19.1504V19.3604C20.7501 19.7804 20.4101 20.1104 20.0001 20.1104Z"
        fill="white" />
    <path d="M20 22.5996C19.58 22.5996 19.25 22.2596 19.25 21.8496C19.25 21.4396 19.59 21.0996 20 21.0996C20.41 21.0996 20.75 21.4396 20.75 21.8496C20.75 22.2596 20.42 22.5996 20 22.5996Z" fill="white" />
</svg>